<?xml version="1.0" standalone="no"?>
<!DOCTYPE svg PUBLIC "-//W3C//DTD SVG 20010904//EN"
 "http://www.w3.org/TR/2001/REC-SVG-20010904/DTD/svg10.dtd">
<svg version="1.0" xmlns="http://www.w3.org/2000/svg"
 width="2408.000000pt" height="1789.000000pt" viewBox="0 0 2408.000000 1789.000000"
 preserveAspectRatio="xMidYMid meet">

<g transform="translate(0.000000,1789.000000) scale(0.100000,-0.100000)"
fill="#000000" stroke="none">
<path d="M18110 12669 c-1467 -50 -2760 -571 -3782 -1525 -513 -479 -967
-1113 -1281 -1789 -226 -488 -405 -1045 -497 -1548 -7 -37 -14 -66 -16 -65 -2
2 -22 85 -45 183 -306 1323 -1028 2508 -2049 3361 -116 97 -314 246 -460 346
-144 99 -341 220 -347 214 -3 -3 -12 2 -19 12 -9 11 -13 13 -14 4 0 -7 -5 -10
-12 -6 -7 4 -8 3 -4 -5 4 -6 12 -25 16 -42 8 -25 6 -30 -5 -25 -10 4 -15 -1
-15 -15 0 -15 5 -19 15 -15 8 3 15 1 15 -5 0 -5 -6 -12 -13 -15 -8 -3 -14 -11
-14 -19 0 -10 5 -11 19 -4 23 12 25 -6 2 -19 -13 -7 -14 -11 -4 -17 7 -4 17
-2 22 6 8 11 8 10 4 -4 -3 -10 -6 -20 -6 -23 0 -2 -7 -1 -15 2 -11 5 -13 2 -8
-12 5 -13 3 -15 -7 -9 -10 6 -12 4 -7 -9 4 -10 7 -25 7 -34 0 -13 2 -14 8 -4
6 9 12 5 21 -14 11 -25 11 -26 -5 -13 -10 8 -15 9 -11 3 4 -7 0 -17 -8 -24 -8
-7 -15 -19 -15 -27 0 -11 6 -8 18 8 13 15 21 19 26 10 4 -6 4 -11 -1 -10 -20
3 -27 -2 -14 -10 8 -5 16 -17 17 -25 1 -9 -2 -14 -7 -10 -5 3 -6 10 -3 16 4 6
-2 6 -15 -1 -11 -7 -21 -15 -21 -18 0 -3 3 -3 7 0 11 11 32 -14 26 -30 -5 -12
-2 -14 8 -9 8 4 5 0 -5 -8 -17 -14 -18 -16 -3 -16 9 0 17 -4 17 -10 0 -5 -7
-6 -17 -3 -10 4 -14 2 -10 -4 4 -6 2 -13 -5 -15 -7 -3 -2 -13 13 -28 13 -12
18 -20 12 -16 -7 4 -13 2 -13 -3 0 -19 -2 -26 -11 -43 -6 -11 -5 -19 3 -24 7
-4 8 -3 4 4 -4 7 -2 12 4 12 6 0 8 5 5 10 -3 6 -2 10 3 10 7 0 10 -49 3 -68
-1 -2 -8 4 -17 13 -9 9 -19 13 -22 10 -4 -3 -2 -9 4 -13 19 -13 25 -42 9 -48
-12 -5 -12 -8 -1 -20 8 -7 12 -28 11 -46 -2 -19 4 -40 12 -50 20 -23 8 -41
-18 -28 -15 9 -19 7 -19 -5 0 -9 4 -14 9 -11 4 3 16 -3 25 -13 13 -14 14 -21
5 -27 -8 -5 -10 -3 -4 6 5 9 4 11 -3 6 -15 -9 -10 -118 6 -124 7 -2 12 -8 12
-13 0 -6 -9 -5 -21 1 -11 7 -23 9 -27 6 -3 -3 0 -6 6 -6 7 0 12 -10 12 -23 0
-13 4 -28 10 -35 7 -9 7 -9 -2 -2 -7 5 -16 10 -20 10 -11 0 -6 -23 7 -32 14
-10 15 -67 1 -62 -7 3 -11 -15 -12 -48 -1 -29 0 -45 3 -35 2 9 9 17 14 17 6 0
7 5 4 10 -3 6 -1 10 4 10 20 0 17 -90 -2 -102 -8 -5 -6 -8 6 -8 9 0 17 -5 17
-11 0 -5 -4 -7 -10 -4 -5 3 -10 2 -10 -4 0 -6 -7 -8 -15 -5 -19 8 -19 -3 0
-22 10 -11 12 -21 5 -39 -5 -14 -7 -26 -5 -26 14 -4 26 -7 32 -8 4 0 -3 -8
-15 -17 -15 -11 -21 -22 -17 -33 12 -29 14 -51 6 -51 -16 0 -19 -39 -5 -51 8
-6 12 -15 9 -19 -2 -4 0 -21 5 -38 6 -21 5 -34 -2 -38 -7 -4 -8 -2 -4 4 11 18
0 14 -15 -5 -10 -11 -10 -14 -1 -9 6 4 12 2 12 -3 0 -6 -4 -11 -9 -11 -4 0 -8
-13 -7 -29 1 -30 21 -36 37 -10 5 9 9 10 9 2 0 -6 -4 -14 -9 -18 -6 -3 -17
-20 -26 -38 -9 -18 -10 -26 -3 -19 16 16 33 15 19 -1 -6 -8 -8 -17 -4 -21 4
-4 -1 -4 -12 0 -16 5 -18 4 -8 -6 6 -7 9 -18 7 -25 -3 -7 -1 -16 5 -20 14 -8
14 -35 0 -35 -6 0 -9 7 -5 15 3 8 1 15 -4 15 -11 0 -13 -11 -4 -34 3 -9 10
-13 15 -10 5 3 8 0 7 -8 -2 -7 -10 -16 -18 -20 -11 -5 -9 -7 7 -7 12 -1 25 -5
28 -11 4 -6 -1 -7 -12 -4 -16 5 -15 3 2 -12 16 -13 17 -16 3 -11 -15 5 -17 -1
-16 -41 1 -45 4 -51 82 -132 314 -326 582 -713 787 -1135 252 -519 399 -1040
466 -1645 26 -237 26 -893 0 -1130 -118 -1068 -516 -1974 -1202 -2731 -63 -70
-115 -134 -115 -142 0 -9 -6 -18 -12 -20 -8 -3 -6 -6 5 -6 9 -1 17 -6 17 -12
0 -5 -4 -7 -10 -4 -5 3 -10 2 -10 -4 0 -6 -7 -8 -15 -5 -19 8 -19 -3 0 -22 10
-11 12 -21 5 -39 -5 -14 -7 -26 -5 -26 14 -4 26 -7 32 -8 4 0 -3 -8 -15 -17
-15 -11 -21 -22 -17 -33 12 -29 14 -51 6 -51 -16 0 -19 -39 -5 -51 8 -6 12
-15 9 -19 -2 -4 0 -21 5 -38 6 -21 5 -34 -2 -38 -7 -5 -8 -2 -3 7 8 12 6 12
-8 0 -18 -15 -23 -26 -7 -16 6 3 10 1 10 -4 0 -6 -4 -11 -9 -11 -4 0 -8 -13
-7 -29 1 -30 21 -36 37 -10 5 9 9 10 9 2 0 -6 -4 -14 -9 -18 -6 -3 -17 -20
-26 -38 -9 -18 -10 -26 -3 -19 16 16 33 15 19 -1 -6 -8 -8 -17 -4 -21 4 -4 -1
-4 -12 0 -16 5 -18 4 -8 -6 6 -7 9 -18 7 -25 -3 -7 -1 -16 5 -20 14 -8 14 -35
0 -35 -6 0 -9 7 -5 15 3 8 1 15 -4 15 -11 0 -13 -11 -4 -34 3 -9 10 -13 15
-10 5 3 8 0 7 -8 -2 -7 -10 -16 -18 -20 -11 -5 -9 -7 7 -7 12 -1 25 -5 28 -11
4 -6 -1 -7 -12 -4 -16 5 -15 3 2 -12 16 -13 17 -16 3 -11 -15 5 -17 -1 -16
-40 1 -43 2 -45 15 -27 9 10 13 12 9 4 -3 -8 -9 -23 -12 -32 -4 -10 -13 -18
-20 -18 -8 0 -14 -4 -14 -8 0 -5 10 -8 22 -8 23 1 25 -6 19 -69 -2 -22 -17
-18 -17 4 0 11 5 17 10 14 5 -4 6 -1 1 6 -11 19 -28 -3 -29 -38 -1 -24 1 -27
13 -18 12 10 14 9 8 -5 -4 -11 0 -22 11 -28 14 -9 12 -10 -13 -7 -24 4 -27 3
-14 -6 9 -7 14 -25 13 -44 -1 -18 2 -30 7 -27 5 3 9 0 9 -5 0 -6 -9 -16 -20
-23 -11 -7 -20 -16 -20 -21 0 -4 4 -6 9 -3 13 8 20 -56 9 -78 -6 -10 -6 -16
-1 -13 4 3 17 -2 28 -10 20 -15 20 -15 -2 -10 -13 3 -26 0 -30 -5 -3 -7 -1 -8
5 -4 8 5 12 0 12 -13 0 -11 -6 -19 -12 -17 -7 1 -10 1 -5 -1 4 -3 7 -11 7 -19
0 -9 -5 -12 -12 -8 -7 4 -8 3 -4 -5 4 -6 12 -25 16 -42 8 -25 6 -30 -5 -25
-10 4 -15 -1 -15 -15 0 -15 5 -19 15 -15 8 3 15 1 15 -5 0 -5 -6 -12 -13 -15
-8 -3 -14 -11 -14 -19 0 -10 5 -11 19 -4 23 12 25 -6 2 -19 -13 -7 -14 -11 -4
-17 7 -4 17 -2 22 6 8 11 8 10 4 -4 -3 -10 -6 -20 -6 -23 0 -2 -7 -1 -15 2
-11 5 -13 2 -8 -12 5 -13 3 -15 -7 -9 -10 6 -12 4 -7 -9 4 -10 7 -25 7 -34 0
-13 2 -14 8 -4 6 9 12 5 21 -14 11 -25 11 -26 -5 -13 -10 8 -15 9 -11 3 4 -7
0 -17 -8 -24 -8 -7 -15 -19 -15 -27 0 -11 6 -8 18 8 13 15 21 19 26 10 4 -6 4
-11 -1 -10 -20 3 -27 -2 -14 -10 8 -5 16 -17 17 -25 1 -9 -2 -14 -7 -10 -5 3
-6 10 -3 16 4 6 -2 6 -15 -1 -11 -7 -21 -15 -21 -18 0 -3 3 -3 7 0 11 11 32
-14 26 -30 -5 -12 -2 -14 8 -9 8 4 5 0 -5 -8 -17 -14 -18 -16 -3 -16 9 0 17
-4 17 -10 0 -5 -7 -6 -17 -3 -10 4 -14 2 -10 -4 4 -6 2 -13 -5 -15 -7 -3 -2
-13 13 -28 13 -12 18 -20 12 -16 -11 6 -18 -6 -11 -16 1 -2 -4 -13 -10 -25 -9
-16 -9 -24 0 -29 7 -4 8 -3 4 4 -4 7 -2 12 4 12 6 0 8 5 5 10 -3 6 -2 10 3 10
7 0 10 -49 3 -68 -1 -2 -8 4 -17 13 -9 9 -19 13 -22 10 -4 -3 -2 -9 4 -13 19
-13 25 -42 9 -48 -13 -5 -13 -8 0 -21 9 -9 13 -25 10 -41 -3 -15 -2 -21 1 -14
3 6 12 12 20 12 16 0 236 137 369 229 1012 701 1779 1674 2232 2835 105 269
204 592 263 856 17 80 34 152 37 160 3 8 23 -66 44 -165 193 -887 566 -1711
1096 -2420 860 -1150 2144 -1943 3623 -2238 468 -94 864 -131 1395 -131 386 0
546 11 880 60 909 135 1949 515 2709 991 252 158 552 385 646 491 150 167 209
378 166 592 -34 167 -99 284 -236 421 -76 77 -97 92 -200 142 -142 68 -216 87
-347 87 -229 0 -424 -77 -650 -257 -300 -239 -616 -419 -1018 -581 -454 -182
-913 -300 -1395 -358 -181 -22 -719 -30 -934 -15 -660 49 -1242 199 -1771 459
-686 338 -1284 864 -1713 1509 -319 478 -546 1037 -667 1638 -29 144 -47 265
-81 522 l-5 43 4668 3 c4351 3 4673 4 4736 20 353 88 560 320 599 672 14 121
-1 572 -27 855 -169 1796 -964 3313 -2240 4272 -457 344 -982 621 -1511 797
-491 164 -1066 268 -1575 286 -323 11 -390 12 -609 4z m-8482 -1524 c-3 -3 -9
2 -12 12 -6 14 -5 15 5 6 7 -7 10 -15 7 -18z m2 -31 c0 -8 -4 -12 -10 -9 -5 3
-10 10 -10 16 0 5 5 9 10 9 6 0 10 -7 10 -16z m9045 -14 c803 -53 1468 -275
2045 -684 247 -176 582 -494 774 -736 116 -146 282 -390 364 -536 300 -531
505 -1192 578 -1861 l7 -63 -4162 0 -4161 0 0 25 c0 49 70 405 115 584 226
901 644 1623 1290 2229 478 449 1066 764 1718 922 440 107 964 151 1432 120z
m-9035 -609 c0 -5 -7 -12 -16 -15 -14 -5 -15 -4 -4 9 14 17 20 19 20 6z m-23
-177 c-3 -3 -12 -4 -19 -1 -8 3 -5 6 6 6 11 1 17 -2 13 -5z m3 -139 c-7 -8
-16 -15 -21 -15 -5 0 -1 9 8 20 9 11 19 17 21 15 3 -3 -1 -11 -8 -20z m1 -378
c-10 -9 -11 -8 -5 6 3 10 9 15 12 12 3 -3 0 -11 -7 -18z m19 -6986 c0 -5 -7
-12 -16 -15 -14 -5 -15 -4 -4 9 14 17 20 19 20 6z m-23 -177 c-3 -3 -12 -4
-19 -1 -8 3 -5 6 6 6 11 1 17 -2 13 -5z m3 -139 c-7 -8 -16 -15 -21 -15 -5 0
-1 9 8 20 9 11 19 17 21 15 3 -3 -1 -11 -8 -20z m8 -1590 c-3 -3 -9 2 -12 12
-6 14 -5 15 5 6 7 -7 10 -15 7 -18z"/>
<path d="M9584 11436 c-3 -8 -4 -23 -2 -33 3 -11 6 -6 9 15 6 34 2 42 -7 18z"/>
<path d="M9582 11330 c0 -14 2 -19 5 -12 2 6 2 18 0 25 -3 6 -5 1 -5 -13z"/>
<path d="M9600 11065 c7 -9 15 -13 17 -11 7 7 -7 26 -19 26 -6 0 -6 -6 2 -15z"/>
<path d="M9582 10975 c0 -16 2 -22 5 -12 2 9 2 23 0 30 -3 6 -5 -1 -5 -18z"/>
<path d="M9600 10615 c0 -14 2 -25 4 -25 2 0 6 11 8 25 3 14 1 25 -3 25 -5 0
-9 -11 -9 -25z"/>
<path d="M9583 1881 c0 -11 5 -18 9 -15 4 3 5 11 1 19 -7 21 -12 19 -10 -4z"/>
<path d="M9584 1196 c-3 -8 -4 -23 -2 -33 3 -11 6 -6 9 15 6 34 2 42 -7 18z"/>
<path d="M9582 1090 c0 -14 2 -19 5 -12 2 6 2 18 0 25 -3 6 -5 1 -5 -13z"/>
</g>
</svg>
